<?xml version="1.0" encoding="UTF-8"?>
<svg id="Layer_1" data-name="Layer 1" xmlns="http://www.w3.org/2000/svg" version="1.1" viewBox="0 0 164.39793 250">
  <defs>
    <style>
      .cls-1 {
        fill: #ef4828;
      }

      .cls-1, .cls-2, .cls-3, .cls-4, .cls-5, .cls-6, .cls-7, .cls-8 {
        stroke-width: 0px;
      }

      .cls-2 {
        fill: #ffe5c0;
      }

      .cls-3 {
        fill: #f4c984;
      }

      .cls-4 {
        fill: #f49947;
      }

      .cls-5 {
        fill: #fcf5e6;
      }

      .cls-6 {
        fill: #dd3119;
      }

      .cls-7 {
        fill: #f4e1c3;
      }

      .cls-8 {
        fill: #e58739;
      }
    </style>
  </defs>
  <path id="path-08" class="cls-1" d="M158.96049,68.75767c-1.02953,10.32585-9.91043,127.11056-10.86292,160.1643-1.65465.35805-5.26373,1.35065-10.0188,2.72189-4.75838-7.30618-7.28181,2.12389-11.49465,3.37874-6.31167,1.88-13.26663,3.98138-19.90948,6.00169-6.80528-6.00166-9.40462,2.86742-13.50752,4.12515-9.17549,2.81274-15.75785,4.85056-15.75785,4.85056l-11.4259-74.48712-12.14938-120.04614c45.32787-1.14207,105.80899,6.44596,105.12648,13.29093h.00002Z"/>
  <path id="path-07" class="cls-6" d="M111.111,74.67238c1.57927,10.56992-1.14329,11.92871-10.56837,12.71353l-.43119-5.50537,2.07309-7.73514s7.34713-10.043,8.92647.52698ZM133.3204,113.46045s-38.12304,30.77292-52.15154,53.91415c0,0,48.98653-36.18895,52.15154-53.91415ZM145.9281,128.68633s-39.23997,43.45578-65.59674,56.84967c22.78556-3.47588,55.57852-30.36241,65.59674-56.84967ZM53.83399,55.46673c-23.05076.58083-42.18737,3.41663-47.35947,9.76131-2.38917.34342-3.15427,3.74887-3.15427,3.74887,0,0,24.18468,102.27007,29.42872,152.20293l5.85527,3.77852,8.97629,3.31514,3.99591,5.05608,13.56317,8.75258,8.82769,1.60042-7.98393-68.16969s-12.14938-120.04614-12.14938-120.04615Z"/>
  <path id="path-06" class="cls-5" d="M105.12063,175.20226c.71204,30.14697,1.36487,57.8058,1.55406,65.82205-4.78389,1.45497-9.40426,2.86722-13.50753,4.12512-.53636-8.13466-2.23139-33.59579-4.24935-61.84502,0,0,1.16592-1.19307,1.88403-1.71533.71805-.5222,8.35592-5.02661,8.35592-5.02661l4.43912-2.80704,1.52375,1.44682ZM104.9582,168.32619c-.15655-6.6274-.31452-13.31097-.46959-19.87425l-1.43384-.54781s-4.74563,4.50111-4.74563,4.82915-9.26994,7.83533-9.26994,7.83533l-1.62561,2.02223c.44444,6.01225.88365,12.05431,1.30973,17.99623,3.12299.54507,16.23488-12.26088,16.23488-12.26088ZM138.80077,140.41747s-8.43781,11.15681-9.16905,11.89931c-.73125.74255-3.56659,5.8049-3.56659,5.8049.04363,29.35924.06011,59.54453.51903,76.90091,4.21419-1.25525,8.13853-2.41083,11.49467-3.37863-.03122-11.4314-.00485-49.67883,1.4772-90.39908l-.75528-.82741h.00002ZM61.65655,55.35933c.59602,4.21903,1.24012,8.79738,1.92152,13.6688,4.9248-3.98486,14.92249,7.92375,17.06009,18.05944,1.39221,6.60148,4.00147,38.24039,6.49509,71.72557l9.78872-5.81711,7.35986-13.29468c-.54198-22.92782-1.02404-43.30215-1.2557-53.04143-.03839-1.61217-2.71875-4.31689-2.74254-5.30959-.03607-1.50675,2.70382-1.48684,2.90322-2.7161,2.27573-14.0316,18.67032-10.51633,21.36574-1.4955.07226.24187.1347.48768.18674.73725.75489,3.6205,1.06405,20.22691,1.20373,41.78727l1.658,1.59136-1.61844,5.50621c.03368,7.13886.05345,14.68806.0678,22.39489,3.09759,2.35666,13.7333-13.88831,13.7333-13.88843.86885-21.835,2.17142-44.03579,4.12195-62.90092.35757-3.45826.52957-6.73644.54733-9.85956-18.90179-4.07515-53.03799-7.26607-82.79644-7.14747h.00003Z"/>
  <path id="path-05" class="cls-7" d="M93.44691,79.0644l2.11983-5.80309c.95591-.07963,4.8698,3.04982,7.63405,5.37519-.20076,1.23256-.30444,2.58592-.26824,4.09778.02372.99049.05533,2.31826.09359,3.92565-1.90051.54172-2.48347-1.07911-2.48347-1.07911,0,0-6.49218-.63176-7.09576-6.51642ZM63.57808,69.02813c-.6814-4.87141-1.32551-9.44976-1.92152-13.6688-16.69696.06658-32.02111,1.17096-42.4898,3.75552-3.06721,7.42178-3.3328,12.61257-3.3328,12.61257,5.65811,19.88601,20.243,106.15958,22.7703,153.2309l12.97227,8.37123c-1.78068-15.61067-15.04291-131.18118-20.10481-155.08131-5.43123-25.64405,10.63397-12.56571,14.93975,4.69062,3.96786,15.9018,15.42181,126.41317,18.72811,159.14324l12.26973,7.91788s-11.36282-126.71685-15.92837-161.84084c-1.49408-11.49442-.29849-17.1926,2.09714-19.13099v-.00002ZM126.05039,149.15572c.00556,2.9707.01028,5.96339.01474,8.96596,5.14353-5.26906,9.76939-10.9836,13.49091-16.87679.07233-1.98776.14821-3.98085.22765-5.97762-3.4845,3.65701-8.24294,8.54137-13.7333,13.88843v.00002ZM88.72332,180.58707c.06509.90834.12998,1.81422.19449,2.71733,5.23351-1.85371,10.73616-4.63161,16.20282-8.10216-.05384-2.28064-.10807-4.57434-.16243-6.87605-5.45153,4.55055-10.97209,8.79105-16.23488,12.26088ZM104.28184,139.70135c-6.11606,6.12103-12.19973,12.71825-17.14858,19.11179.09359,1.25725.18712,2.51643.28033,3.77769,4.39155-3.44009,10.6149-8.45959,17.07502-14.1389-.06968-2.94743-.13865-5.86784-.20677-8.7506v.00002ZM125.94303,119.66326c.01493,2.31322.02812,4.68009.03956,7.09763,3.91064-4.91821,6.66425-9.5281,7.33781-13.3005,0,0-2.89812,2.34076-7.37737,6.20287Z"/>
  <path id="path-04" class="cls-2" d="M160.57831,64.05743c.25848.51684-.06671.92915-.04143,1.36603-.11667.32454.00259.69045-.70389.8755-2.16313.56654-5.0988-1.13302-6.78123-.85838-1.68243.27471-2.18634,1.35401-2.18634,1.35401-2.17178.58561-4.57913,2.16604-6.95976,5.57175-7.68996-5.55798-16.28523-1.47495-19.16635,5.50964-2.52878-1.5485-5.07689-2.52652-7.53942-2.89754.00006-.00097.00032-.00659.00032-.00659l-2.27806-2.84363-5.51229,3.97956c2.31988,8.1684-5.37202,9.88283-7.22529,7.43083,0,0-6.42347.29332-6.62326-4.37959-5.50867-.54754-12.21182,1.71598-14.92314,7.92854-3.23785-4.07916-11.56907-7.23531-16.89604-2.02778-.00013,0-6.4863-2.89779-6.64931-3.02345-2.21891-1.81015-4.83153-2.97529-6.92557-2.92863l-.00304-.0044-.44451-.85405-1.28078,1.24284s.0042.00776.00452.00834c-1.07872.53267-1.83963,1.62057-2.03199,3.43842-.70551-1.97588-2.8616-4.26434-5.33434-5.87813v-.00006l-.24129-1.06689-2.00277-.16069c-1.04117-.45782-2.07801-.75282-3.03806-.82302l-2.86399-1.54792-1.2462,4.08718c-.0806.21802-.15287.4491-.21311.69892-1.55432-4.76786-7.72273-10.01508-11.90693-9.90707l-.40928-.95507-1.0689,1.2663h0c-1.04653.45621-1.85527,1.42653-2.25266,3.07503-2.81215-6.3779-9.3594-6.49942-9.3594-6.49942,0,0-4.87781.42188-6.27384-4.6289-.88779-3.21186,1.3544-4.90457,3.10651-5.71408h0l1.48677.21097.36054-.85088s-.81513-2.8095,1.69503-4.7921c-3.87219-5.58914.87369-10.73067,6.58907-10.68258h0l.33133.62917.50346-.59802c2.41037-3.82507,7.22432-2.32582,7.22432-2.32582,0,0,.14046-3.72405,3.9102-4.6042,1.24807-.09773,1.06638-.57333,1.06638-.57333,0,0-1.31639.1254-1.53312-.19669l-.00006-.00006c-4.69347-7.77069-.11124-14.44243,5.47085-14.54469,5.7665-.10562,7.19866,6.20603,7.19866,6.20603,0,0,2.16947-1.15997,3.0124-1.07801l.91325-.60532-.53862-.9362v-.00006c2.0303-5.91795,10.12974-5.53116,14.30618-1.70589l.12359,1.11925h.92398c1.26042-2.35142,3.62257-3.39718,3.62257-3.39718,0,0-.97782-9.57716,8.88516-9.16633l.56156-.27503-.45853-.96593c.87008-6.05517,6.95278-7.21643,10.3464-4.01711,5.33738-3.3783,11.47503.55581,10.07564,4.72792l.32739.53131.76866.13994h0c.51703.4851.77293,1.07446.89742,1.60112h0l-.27665.69853.36539.66272s8.75647-.93103,10.12295,6.26608l.83142.29798.83142-.47941h0c1.78236-.00452,3.35025.51522,3.35025.51522l1.06948-.03581.2729-.73421c1.54954-.68282,4.14334-1.16378,6.16563,1.8225l1.10063-.12165.35835-1.4723h0c3.71674-2.89321,8.98703.206,9.61329,1.85824l.59427.14905.5562-.89296c4.01776-2.11155,8.2885,1.11162,7.62061,6.5245l-.50488.64598.27109.60519c1.22435-.19275,2.49562.67209,2.49562.67209l.78947-.31064.49318-1.18279h0c1.14587-1.08383,3.01427-2.31277,5.43834-2.02371,4.17844.49822,4.90884,6.34183,4.90884,6.34183l.39952.31691.79335-.16295h0c1.53551.36849,3.99358,1.61844,3.86444,5.85383l.60493.56926.78474.00123c3.18027,1.73369,2.79333,5.54312,2.034,7.98393l-.69084.76065-.15047,1.2365c6.92415.9691,7.25774,7.96182,5.63692,11.0894l.45149.31963,1.05637-.13852h0c2.71823,1.25887,2.50157,7.59327-2.05164,7.68583l.00003-.00002Z"/>
  <path id="path-03" class="cls-3" d="M136.02507,31.89936c-1.35963,1.72037-2.8477,1.80401-2.8477,1.80401,0,0-.97537,2.79948-1.24167,4.38625.06206-.32519-.42007-1.12423-.42007-1.12423l-3.24722-7.59333s3.16377,3.86211,7.75667,2.5273ZM110.3288,38.45992c-.00873-.04221-.01332-.08364-.02275-.12598l-.00394-.00233c.0086.04311.019.08435.02669.1283h0ZM103.25224,16.18119c-.54728.00142-1.11414.05042-1.66284.18144.51024,1.89392.64236,3.78067.64236,3.78067,0,0,.79296-2.12623,1.02048-3.9621h0ZM56.35143,19.55658s.58315-.71217.95527-1.35046c-.34587.3928-.67888.83478-.95527,1.35046ZM87.90011,13.87068c-.03684-.01745-.06793-.03568-.10555-.053l-.00834.00621c.03639.01726.0786.02838.11389.04679ZM81.83479,12.05769s-.01551-.01041-.02256-.01519c.00776.00543.01525.01196.02301.01745l-.00045-.00226ZM16.71999,52.28365c-.15687-.14769-.25299-.2356-.25299-.2356.04066.06373.13541.14705.25299.2356ZM17.59983,52.84296s-.53836-.30211-.87984-.5593c.97912.92178,4.57913,4.42361,5.47764,6.90495,2.65347-2.89133,6.24947-2.20444,9.22651-1.42679-2.0667-.75412-4.49445-4.51339-4.30965-6.13028.19869-1.73808-1.1124-3.86373-1.12707-3.98292s.25305,1.50972-.30315,2.85681c-2.30436,3.21439-8.08444,2.33752-8.08444,2.33753ZM79.30058,59.99999s-2.12202,6.90133-7.61382,8.12083c1.53661.63389,3.76225,4.85092,3.76225,4.85092,0,0-.59718,2.18666.34574,3.39711.00569-2.26474.75845-4.43699,3.50583-5.22511s3.9188.82942,3.9188.82942c0,0,.15623-7.66986,6.52088-9.62221-6.24753.23431-10.43967-2.35097-10.43967-2.35097h-.00002ZM107.77881,34.81144c-.81552-.48322-1.50326-.63777-1.50326-.63777.21873,1.72845-.41781,3.91595-.41781,3.91595,0,0,1.41302-1.37915,1.92107-3.27818ZM89.38423,6.46293c.01441-.04305.01622-.08545.02909-.12843-1.01337,2.02468-1.80459,2.67047-1.80459,2.67047,0,0,1.69995-.68334,2.87155-1.87078-.28188-.26449-.63952-.4979-1.09605-.67125h0ZM87.9352,13.33717s1.60616-2.61843,3.53123-3.24063c0,0,.08726-.61644-.08875-1.36125-2.89346,1.45743-3.44249,4.60188-3.44249,4.60188h.00002ZM115.19847,23.74815s2.23553-3.25808.37101-7.5932c-.52259.40676-1.01512.92948-1.45898,1.59394,1.32777,1.91137,1.08797,5.99926,1.08797,5.99926ZM125.59037,21.08098s.98422-1.72457.74287-3.81169c-.38717.20348-.77273.43817-1.15047.7439.63292,1.85779.4076,3.06779.4076,3.06779ZM137.42543,31.89929s2.75806-3.34379.07291-7.67568c-.60416.57139-1.00697,1.09811-1.18073,1.34419l-.10193.14925c2.90627,2.93076,1.20975,6.18225,1.20975,6.18224ZM130.29994,29.47412c.63014-.67629.63014-3.18498.63014-3.18498,0,0,.96942-.69517,2.78998-1.24419.10768-.42867.18376-.84564.2338-1.25124-1.67307.22823-3.66476,1.1877-3.66476,1.1877,0,0-1.24944-1.76258-3.43105-2.24664,2.37489,1.50332,3.63575,4.55579,3.44192,6.73935h-.00002ZM131.14021,43.33153l1.78133-2.48257s1.28693-.07239,2.67603-.60132c1.76057,2.57616,5.7029,1.81513,7.68628.07647,2.35632,1.92016,6.44765-1.78688,6.30402-5.04173-2.17244,4.86062-5.26634,3.88493-5.26634,3.88493,0,0,.77519-1.66911.30418-2.82844-4.05247,4.63135-6.68874,3.71972-7.58713,3.16558,1.31697-.89968,2.32744-2.39188,1.84254-4.88175-.38129,3.57254-5.1151,6.93585-6.9454,3.46692.98584,2.75934-.79549,5.24191-.79549,5.24191h-.00002ZM149.03839,28.6957c-.68883-.16534-1.19287-.15396-1.19287-.15396.18584,2.54378-.39383,3.35756-.39383,3.35756,0,0,1.16585-1.59976,1.5867-3.2036ZM154.29251,35.12001c-.40897-.22293-.85521-.42402-1.38969-.57048-.48769,1.71682-3.38606,2.31781-3.3136,2.4158.06528.08829,3.20222.61554,4.70329-1.84531h0ZM152.90282,51.48293c2.77298-.68838,2.91789-3.87659,2.0484-5.07217-.18118,3.40558-2.0484,5.07217-2.0484,5.07217ZM161.1221,56.19049c-1.20735,1.77751-2.53874,2.50209-2.53874,2.50209,0,0,2.39699.08021,4.04659-2.32098-.43248-.20024-.93205-.28401-1.50784-.18111ZM121.16935,51.03694c-2.09578,1.61624-3.19234,3.32996-3.749,4.51591.46041-.12824.94021-.18932,1.42731-.16075.44496-2.01492,1.28129-3.43253,2.32169-4.35516ZM115.59863,56.51012c-.00039.00032-.00065.00065-.00103.00097.00039-.00032.00078-.00058.00116-.0009,0,0-.00013-.00006-.00013-.00007ZM120.98972,57.57411c.83756,1.77428-1.6949,5.57479-1.6949,5.57479,0,0,5.03869.54456,6.44603,2.5293-.06018-2.79728,3.08305-7.18573,3.08305-7.18573,0,0-2.76968,3.38587-5.19305,2.84596l-2.74764-3.95183c.04027.05953.07569.12216.10651.18751ZM160.57831,64.05743c1.5079,3.01537-1.61778,4.70019-1.61778,4.70019,0,0-3.52335-3.19577-8.09511-1.96302-1.53874-3.30882-4.56781-1.76794-4.56781-1.76794.33023-1.47062,1.93341-1.87783,1.93341-1.87783,0,0,.14046-.56809.03419-1.27044-1.74222-1.31497-2.07413-3.61022-1.25557-5.37952-3.79431,1.18311-5.22704-2.25582-5.22704-2.25582-1.10233-.21537-1.866-.64727-2.36455-1.1974-.65755,1.2674-.02043,2.50719-.02043,2.50719,0,0,4.3746-.33779,6.5305,3.65947-3.92261-3.78396-8.32639-3.21309-10.27168-.22358,1.26456,3.17231.2,7.05361-3.03909,8.15586.59213.96024,1.70337,2.50215,2.99339,2.54003l-.10251.13057c-.87828.0638-1.73285.22972-2.55923.48129-.60641-.9117-.79626-1.88914-.83957-2.64067-3.4659,4.26771-7.08367,6.32483-10.02264,3.41812-1.39712.45634-2.56336.47314-3.51126.22073-1.08157,1.57707-1.36733,2.82152-1.37534,3.67718-2.75734-.42053-5.40176-.06225-7.79034,1.13593,2.49233-4.78667-.44296-9.7074-4.57279-9.60334.28014,3.46369-2.6525,6.23564-2.6525,6.23564,0,0,1.98603-3.97671,1.00898-5.9449-1.55729-3.13262-2.9804-4.03307-2.9804-4.03307,0,0,2.63472.2217,3.69115,2.38277,0,0,4.88628-.71773,7.20674,2.97594,2.34793-.32396,3.53867-1.67758,4.08537-2.5801-1.33048-1.41121-3.49252-5.27203-.09973-8.55881-1.97905,2.11627-2.17923,5.83502,2.63324,8.00423-2.15841,2.36538-.39829,6.00165,4.75688,4.63814,2.96553-.64417,4.70329-4.47939,4.70329-4.47939,0,0,.75334,3.55328-2.0051,5.92157,1.89496.1104,4.30939-1.17917,6.48992-5.18316,3.8497-.5041,4.80244-4.05673,3.92706-6.81801-.00136.00213-.00298.00394-.00433.00608-.58704-1.86251-1.99243-3.37165-3.92274-3.33687-.14291-1.9722-1.27161-3.64319-2.8046-4.73412-3.29822,2.26222-8.12303.88391-9.90959-2.71907-1.86723-.14065-2.83057-2.02546-2.83057-2.02546l-1.06489.49221c1.27535,1.45097,1.81429,4.64932,1.81429,4.64932,0,0-2.77046-5.4088-7.21921-4.08349-4.44875,1.32525-4.34294,5.85144-4.34294,5.85144,0,0,1.9307,1.27981,3.0365,2.64287-3.52135-1.82819-8.44544,2.04084-8.14074,6.95394,0,0-3.20508-1.22978-5.73599.28951,2.21271,2.96592,1.47113,10.91792-3.23423,12.62356.67966,1.0963,1.75463,2.41606,3.38923,3.41715-.53707-.02198-1.08221-.01674-1.63124.01467-2.68223-1.06702-4.09842-2.58967-4.09842-2.58967h-2.15602s-1.58754,3.70886-4.54513,4.44248-5.99157-1.34826-5.99157-1.34826c0,0-4.90761,1.1175-7.31022-2.47009-1.63589,2.83788-5.7389,3.44313-7.08063,3.56711.01629.16844.03271.34122.04996.54689.1188,1.41406.90285,2.70847,1.87324,3.80432-.83769.81895-1.6037,1.83743-2.26119,3.09933-.65432-2.27457-2.35472-4.46394-4.38812-6.12278l1.49343-2.01919c-1.70874-.26482-2.69574-2.14116-2.69574-2.14116-4.34863,1.0581-6.39581-3.65385-6.39581-3.65385-.05953.07524-.14789.15435-.24821.23418.79697,1.58483.95759,3.32304.91771,4.64699-.77189.0179-1.47113.20257-2.05461.58205.04285-1.09385-.09081-2.58159-.57811-4.43175-1.37424.37955-3.13462.39183-4.33396-.76187-.7463,1.00271-1.48503,1.87104-2.12041,2.56892-.73052-.47676-1.48716-.89483-2.24406-1.22758,1.67209-2.28717,4.12835-5.96623,4.42038-8.21921,1.56447,2.52949,1.14291,5.55482,1.14291,5.55482,0,0,.1422,1.52594,5.09835-1.0338,3.62638,3.6448,6.83695,2.43894,8.52901,1.2853-1.86309.22642-3.88544-.76233-5.14819-3.37255-3.95577.17879-5.79391-2.35898-6.44609-3.37236-1.10865.61547-2.63964.95772-4.37933-.08752-1.42059-.85353-2.00626-1.9-2.20689-2.84867-.46726-.06625-2.35097-.25435-3.90652.73712-2.76154,3.42723-1.02068,8.50193-.14162,10.53385-2.03289-.1486-3.71538.7163-4.32336,3.23817-.82515-2.53117-2.95177-5.19919-5.39129-7.12969,2.29725-.10549,7.02647-.62374,7.66973-3.09429.85411-3.28044-1.99909-4.76767-1.99909-4.76767,0,0-5.03876,3.40106-8.55771.77008-.64908,1.05875-3.86056,1.7419-3.86056,1.7419,0,0,.7028.94118.23198,2.57261-.52937.01364-1.02579.11402-1.47818.31123.23049-.79445.31879-1.76652-.11861-2.69018-4.34062.66065-6.96642-5.55727-6.96642-5.55727,0,0-6.25554-.22332-7.69436-5.51991,1.00316-.46345,1.84732-.6399,1.84732-.6399,0,0,.95669,4.09681,5.67136,4.35962-.23916-5.98931,3.58727-7.42418,3.58727-7.42418,0,0-1.33856-2.39285-.13974-5.19369-1.36041-2.15492-1.08751-5.52302-.83478-7.21643.27703.00233.55407.00381.83478.03115,0,0-.23612,4.7603.78883,6.46852,2.32317-2.49401,3.99959-2.80265,5.34766-2.62251.00549.00071.01228.00504.01784.00614-.55103.00698-1.14969.10226-1.80563.32286-5.46148,1.83672-3.12551,8.79486-3.42303,8.73604-8.3223,6.99479.29132,15.95487,8.09536,10.82459,1.73104,2.41761,5.413,2.31348,7.52495-.33178.16961-.21207.33139-.43669.47922-.68108.0022-.00356.00472-.00666.00685-.01021.48497-.80505.84151-1.78546,1.00058-2.94931,0,0,5.24133-3.6227,3.64958-8.1326-.05688-.16489-.11861-.33042-.19236-.49732-.12527-.27128-.26398-.54411-.44315-.82037l.00026-.00026c-.01661-.02573-.02585-.05074-.04305-.07653-.04318-.06477-.09127-.11202-.13528-.174.00149.00078.0031.00129.00459.00207-.55426-.78191-1.17018-1.34697-1.81726-1.73983.0011.002.00187.0042.00297.00621-.46254-.28233-.93769-.47876-1.41723-.60694-.21692-1.10736-.02359-1.97123-.02359-1.97123,0,0-3.10709-.01887-3.85371-3.66969s2.62994-5.90373,2.62994-5.90373c0,0-.79587-3.88363-5.25982-3.10909-.17562-.25887-.31168-.51335-.46674-.77002,4.81188-.7304,6.83062,1.82334,7.65415,3.65818-5.12427,2.56401-3.56355,9.05373,1.08176,8.98089-.50178.57132-.72736,1.17833-.75315,1.77428,1.33837.74203,2.62037,2.05125,3.38483,3.7488.0192.00343.03833.00769.05753.01079.08694.01416.17387.0254.26068.03271.06367.0053.12701.00724.19036.00873.08177.00194.1634.00259.24446-.00207.06961-.00407.13845-.01357.20729-.02269.07433-.00976.1486-.01894.2217-.03484.07634-.01668.15073-.0413.22545-.0649.0638-.02004.1283-.03717.19068-.06237.08648-.0351.16967-.08112.25305-.12649.04809-.02611.09792-.04686.14479-.07653.12876-.08164.25357-.17497.37198-.28427.08816.82005.56887,1.56867,1.27877,2.15467.8044-.93904,2.70149-2.59736,5.77607-2.05681.91112.16011,1.65399.4332,2.27256.75735.70816-1.12416,1.20102-2.66219,1.31478-4.73063,4.92862.28324,5.58196-6.79545,2.89657-9.3797-2.05125,3.6174-6.28715,4.1999-6.28715,4.1999,0,0,4.56348-2.03806,4.82106-5.03701.04247-1.63033-.2292-2.93974-.71449-3.98317-.14227-.30696-.29946-.5944-.47928-.85295-1.59239-2.43002-6.43407-3.20443-10.32863-.86839l-6.03048,5.32865-.70215.37586s-.58858-3.57551-4.0981-5.17598c5.04852-.80311,6.21747-6.92706,6.21747-6.92706,0,0,1.4913,4.16881,4.61325,4.85958,2.80595-1.5463,5.19705-1.62736,7.08858-1.13192-.25939-1.63111-1.32389-4.81343-5.69256-4.48935.07931-.55853.21149-1.06592.37463-1.54152,5.51849.26107,6.62165,3.85106,5.78053,6.17759,2.04123.66395,3.4306,1.95074,4.04342,2.62244,2.64351-1.34606,5.60582-1.18802,8.32534,1.42951.57669-1.21711.56344-2.99275.52621-3.75643-5.02208-.3098-6.18755-5.86016-4.36931-8.17907.38071.34865.74003.71559,1.04757,1.11925-2.11924,2.2363,1.61488,6.23273,4.54694,6.16046-.66731-2.09294,0-4.36615,0-4.36615,0,0,.67125,6.21883,6.44286,5.76153-.54301-4.1829.59362-6.53497,2.42485-6.96913-1.64177-3.14949.9287-7.88672,2.71507-8.33575-.25241-4.34876-3.62198-4.81447-3.62198-4.81447.01034-.43494.04647-.84752.10303-1.24096,1.78223.67429,4.28878,2.18976,4.84523,5.46704,2.25589-1.26145,4.66438-.72264,6.24953-.0808-5.02318-1.76038-11.05857,2.48076-9.0293,9.42494-5.534,4.40629-.09198,10.50722,5.01704,8.28178,2.70401,2.53046,6.76314,2.20896,8.45261-2.03063-2.65961-.41859-3.84272-4.36796-3.84272-4.36796l1.30618,1.20295s1.44929,1.4253,2.96515,1.83504c5.86385.12934,8.51382-3.6121,5.1264-7.47123-1.24581-.99146-2.44359-1.4604-2.44359-1.4604,0,0,1.31465-.07149,2.25989.23185-.22953-.96218-.74442-2.24031-1.90439-2.88189,3.69638,1.77751,3.44191,4.11038,3.44191,4.11038,1.50448,4.91142.28847,8.39418-3.80135,8.62067,2.72353,3.71713,7.53231.75121,7.55914.67222.02773-.08183-.19837-2.17968-.18273-2.32466.01571-.14492,1.5697,3.31567,6.77587,2.94834,5.2061-.36733,5.06125-6.84878,5.06125-6.84878,0,0,.63182.94079.42634,2.83548,3.62573-1.73834,1.92294-6.45262-.64217-7.22005,0,0,.53041-.41219,1.34238-.77002,3.11685,2.65625,3.84337,7.13893-.16605,9.73223,2.69173-.20923,5.68247.06225,7.28295,4.31399,3.51617-.96671,5.09338-.33443,5.09338-.33443,0,0,.83653-3.1246-.24103-5.72171,4.33906,3.48011,1.54094,9.49184,1.54094,9.49184-1.15493-3.9685-6.06997-2.03205-6.06997-2.03205l-.1263,3.09875s-1.86354-6.37609-5.49128-7.16893c-3.44229-.75237-5.2211,2.14335-5.39419,2.44172-.3385-.32887-.73001-.63557-1.20024-.89412-3.07994-1.69329-10.69867-.36487-9.54497,8.61918-5.58119,3.68791-2.01764,7.57749.61651,6.98846l.90569,1.45659s.05772.1433.17264.36526c.04964.09592.11079.20748.18363.33016.00317.00536.00711.01131.01034.01674.06244.10452.1369.21925.21666.33682.02036.02993.03995.05934.06147.08985.6041.86012,1.6633,1.95093,3.30643,2.29984.97155.20632,1.8947-.09799,2.696-.57746.09663-.05785.19313-.11544.28589-.17801.10969-.07401.21518-.15144.31905-.23043.08377-.0636.16838-.12643.24808-.19217.10652-.08804.20716-.17743.30586-.26727.06561-.0596.13347-.11887.1954-.1784.10911-.1051.21-.20832.3069-.31026.03936-.04137.08254-.08396.11977-.12436.12042-.13082.23069-.25635.32745-.37166.32719-.38969.51845-.67074.51845-.67074,2.12235-.40553,2.68637-2.80646,2.68637-2.80646,0,0,3.75921-1.19649,3.25162-4.80445.64378,3.5015-1.05752,6.57711-3.11762,7.0701-.32609.54502-.68347,1.01182-1.05694,1.4255l.6306.17336c3.8782-3.56788,6.22704-1.50377,6.22704-1.50377,0,0,1.54243-.9384,2.29945-.77583-1.95546-3.08182-.6507-7.34267,4.96016-6.57433.50501-3.16746,3.75443-3.27249,3.75443-3.27249-2.92068,1.48484-2.60434,4.88796-2.60434,4.88796,0,0-2.77195-1.37327-4.87594.89296-2.10406,2.26623.50837,6.13713,5.14748,4.06591-1.74319,3.40687,1.90426,5.79346,1.90426,5.79346,1.55729.75237,3.62683.32945,4.90121-.06477-.22469-.14168-.45511-.27387-.69297-.39028,1.64126-3.09106,1.51794-5.14062,1.51794-5.14062,0,0,1.02209,1.8892.8512,3.56265,3.18854.78689,6.14256-2.42795,3.66238-5.46316,1.99915.93083,2.03935,4.07308,2.03935,4.07308,0,0,1.15474,2.43144,3.15073,1.91732.69859-1.58147,2.24632-2.87718,3.87601-2.6938.68993-2.53609,3.02953-5.43446,6.03662-6.15911-4.78233,2.64481-4.99973,7.26562-4.99973,7.26562-5.09628-.56312-4.92726,5.12498-2.49983,5.12498,1.15932-1.83517,1.61708-2.03186,1.61708-2.03186,0,0-1.2186,2.54611,1.38995,3.88312,2.60855,1.33695,4.78908-1.23534,4.71326-1.09042s-.75916,2.1877-.75916,2.1877c0,0,3.14955,2.01744,6.0829-.70105,2.93327-2.71849,1.84377-5.75047,1.84377-5.75047,0,0,2.4054,5.5808-2.4445,8.13453-4.00179,2.10716-6.61195-1.08105-6.61195-1.08105-.02573.00937-.04861.01325-.07414.02224-.98824,3.75863,2.42046,5.06739,3.60616,5.0862.38246-1.63033,1.25499-1.78604,1.25499-1.78604,0,0-.18414,4.56342,2.9678,5.2942,3.15201.73072,5.25716-1.05002,5.25716-1.05002l.26126.08073-.00002-.00004ZM35.60562,49.06513c-.14427-.05494-.28776-.11344-.42738-.18486.10213.05229.20658.09792.31148.14175.03826.0159.07731.02831.1159.04311ZM36.24901,49.25251c-.14834-.0287-.29545-.06819-.44147-.11505.03814.01241.07614.02566.11441.03684.08875.02592.17782.04777.26721.06696.01997.00427.03988.0073.05985.01125ZM82.2217,31.14414c2.00639,2.5878,1.81603,6.09557,1.81603,6.09557,0,0,2.81428,2.69684,5.97903,1.95739.55995-.96832,1.46254-1.90161,2.83729-2.67777,0,0-.79497-4.39103,2.30986-7.67432-5.61978,2.95409-8.36639-.10672-9.30511-1.59588-1.1729,1.91144-2.41864,3.17832-3.6371,3.89501ZM89.7175,39.7853c-2.66627,1.03684-6.56748-.96348-6.56748-.96348,0,0-1.3438,1.52614-2.74499,2.21691,1.77467,1.83756,6.00902-.19139,6.00902-.19139l-.98584,1.76432,1.15402,1.15325c.84377-.36216,1.84396-.56518,3.01285-.48639-.38608-1.03535-.39765-2.27198.12242-3.49323ZM75.81588,30.1415c.60571,1.55917-.4893,4.7572-.4893,4.7572l.16372,1.61779s3.37682.11208,4.34811,3.51184c3.20715-1.65063,3.17754-6.16693,2.25776-8.80404-2.33151,1.30275-4.54047.62762-5.8864-1.25169-.13108.06431-.26255.1135-.39389.1689ZM49.91212,48.24903s2.09177,2.74157,4.58113,2.60021c2.48942-.1413,3.87614-1.81144,3.87614-1.81144,0,0-3.28044-2.64313-1.95908-7.34099.01002-.03568.02411-.06231.03497-.09624-.40702,2.72017.80886,5.54195,3.46285,6.71492.97149-4.11458,4.2794-6.22161,4.2794-6.22161,0,0-2.22215,2.96502-2.93974,6.64576-.84894,4.03501,3.28141,6.06441,6.6985,5.80858.47948-.04447.6348-.07097.6348-.07097.47948-.07905.93781-.20386,1.35466-.3811,3.47054-1.47566,3.9557-5.62792,3.9557-5.62792,2.55238-.11253,4.41146-2.15202,5.1224-4.47054l3.82701,3.47539s.82354-1.9115,2.71429-3.16313l-1.09087-1.06218s-2.46854.46086-5.14502-.88055c.04227-.64572-.02327-1.27877-.17885-1.87563-.46105-1.77221-1.82146-3.18627-4.3549-3.34902-.35065-2.48528-1.7916-4.28923-3.58837-5.16545l-.00698-.02269c2.11608.67927,3.21193,1.74991,3.21193,1.74991,0,0,1.38639-1.80259,1.26753-3.50008-3.62043,1.43849-7.25076-.38827-7.82977-2.2745-5.27242.30405-6.34591-1.40081-6.34591-1.40081-.2356.03891-.45084.04706-.67384.06671.55549,2.03444-.47883,4.7806-.47883,4.7806,0,0,1.02268,3.31412.36313,5.09952,0-4.08562-5.29375-8.46793-9.32676-6.70671,1.09818,2.24716.29164,4.30836.29164,4.30836,0,0,4.35115,1.7205,3.48967,6.96131-.86154,5.24081-5.04962,5.32982-5.04962,5.32982,0,0-.19721,1.88048-.1972,1.88048ZM65.65085,56.46119c-1.50739-.18893-3.25116-.14821-4.44824.70086-2.24128-5.04083-7.26149-5.13636-9.62732-3.69884,0,0,2.26591,2.25783,2.91796,5.56936.74636,1.66272,6.13745.77053,7.37563-.762-.17517,1.48251-.66628,1.72936-.66628,1.72936,0,0,1.26714,2.34547,3.17858,3.23753-.45369-2.80006.67823-5.57195,1.26967-6.77626ZM47.77769,64.02666c1.85785.72891,4.31554-.58535,5.09784-4.02674.78223-3.44132-1.06941-4.98123-3.38716-5.11464,0,0-.96871-2.42078-2.9274-3.79954.25557-.18441.49589-.40902.72775-.65315-.23353.24439-.47864.46261-.73557.64792-.41012-.2877-.86057-.53293-1.35776-.69711-1.05978-.35001-2.56369.1625-3.79838,1.24814-.24969-.09838-.48717-.21524-.71411-.34303.22629.12837.46086.24782.71036.34619-.29209.25719-.56577.54967-.81791.86755-.34367.43339-.63906.91946-.86678,1.44896-.06186.14369-.11932.28996-.17051.43979-.03219.09456-.06192.19042-.08952.28737-.04124.14453-.07466.29248-.10503.44186-.02333.11538-.04589.23082-.06225.34897-.02592.18512-.04298.37341-.05074.56486-.00446.11247-.00233.22681-.00013.34128.00265.14162.01222.28511.02547.42971.01086.11667.01874.23263.03684.35111.03484.22914.08416.46151.14776.69665.03309.12203.07795.24601.11919.36946.04951.14847.10458.29785.16644.44826.05345.12986.10775.25984.17071.39105.09476.19759.20425.39687.3215.59705.03251.05552.05824.11033.09256.16605,3.09035-4.4198,5.4207-3.18097,5.4207-3.18097,0,0-2.74402.45937-4.69295,4.21335-3.2542,5.50343,5.31198,7.24785,6.73909,3.16959v.00002ZM58.30281,71.97311c3.03308-.35259,4.87122-3.61416,4.87122-3.61416l-.73873,2.34541s3.18879-.07614,4.67905-2.28058c-.9351-1.14013-1.83148-2.42705-2.45271-3.78383-1.27199-.12869-2.22635-1.06017-2.22635-1.06017,0,0-2.15564,1.37896-2.6735,3.01608-1.08312-.95397-4.804-1.14239-4.804-1.14239,0,0-.61657-2.42446-1.60428-3.66199-.51658,2.57849-5.08627,3.32278-5.08627,3.32278,0,0-.36061.47986-.98649.98526,1.32014,3.6821,6.65481,2.34063,8.0019.84215-.63299,1.78423-1.36804,2.30055-1.36804,2.30055,0,0,1.35504,3.0835,4.38819,2.7309v-.00002ZM103.42275,52.60425s-1.49324.45802-2.50719,3.50014c-.63486-1.22752-2.35407-1.52743-2.35407-1.52743,0,0-.72729,4.49536-3.33286,5.15549,3.82999-2.31826.4065-6.43756.4065-6.43756l-2.78106.18234c2.16733-2.41276,2.3765-4.85448,2.28446-6.18942-.65296-.18906-1.22403-.64171-1.51043-1.57281-1.79457.37166-3.35368-.71566-4.00218-2.34063-5.47919.4425-5.37319,6.54085-5.37319,6.54085,0,0,1.94408.80673,2.49375,2.13275-3.94924-2.77595-9.57884-.17458-9.91786,3.66316-2.0104-1.25479-4.8687-2.30637-7.6495-.89554,0,0-.7028.49932-.97892.60707-.42175.31297-.7938.66841-1.12836,1.05293-1.67047,1.9338-2.21064,4.68086-1.46822,7.38643.73634,2.68889,2.71875,5.32219,6.15995,7.02938-.44955.31872-.81164.72348-1.09714,1.17277-.73208-.63531-1.91687-1.73414-3.09765-3.09668-1.28446,3.08492-3.94452,3.61597-6.32096,2.51424-.56732.7633-1.29668,1.31768-2.0961,1.64397-.20878.91836-.71831,2.47617-1.92811,3.78409,6.29769,3.26228,11.24964-1.85107,13.18292-4.35535-1.37069,2.89359.36759,7.12756,6.12401,5.32154,1.97982,2.07768,6.9502,1.31568,7.50588-4.27591,2.4944,1.3034,4.60492,1.51858,6.27616,1.05319,4.36641-1.21375,5.68286-7.15173,2.60641-11.0958,0,0,.72897-7.82738-3.7064-9.98237.01558.00511.02838.00343.04421.00911,4.71906,1.69206,5.22039,7.55901,5.22039,7.55901,0,0,3.35704-.58173,4.97115.34619-.40695-1.94414,2.2153-6.40608,3.97445-6.91245-.10238-.71915,0-1.97271,0-1.97271h-.00005ZM136.5209,65.11431c-.81979,2.59019,1.22958,4.37759,5.4194,2.08428,0,0-4.78183.06179-5.4194-2.08428ZM95.93381,39.1454c-.65025.81371.65018,5.98775,4.60886,4.18613,0,0-3.54268-.71986-4.60886-4.18613ZM44.82075,41.06013c-2.43687-2.09384-7.9531.56202-6.24714,6.19808.62032-4.8804,4.82933-6.6296,6.24714-6.19808ZM73.38612,38.33162s-3.32834,3.42646-6.73715,2.19765c.31795,2.49802,5.05918,2.87918,6.73715-2.19765ZM81.11609,9.64124s-2.90374-1.99812-1.78262-6.32949c-.37748.16444-3.369,4.39381,1.78262,6.32949ZM150.57558,40.07539c.00983.01054.05437.02165.11331.03387-.08337-.036-.1274-.04893-.11331-.03387ZM155.48518,45.10109c.21207-.3363.552-1.06696.84138-1.99721-1.90005-2.54805-5.02034-2.8669-5.63768-2.99462.62691.27076,3.70827,1.97433,4.7963,4.99183ZM145.20834,33.0336s-2.24593,1.91661-4.94296.06793c.34167,1.67441,2.82915,2.50926,4.94296-.06793ZM52.1048,20.8713c.21265,4.78719-2.33882,5.98924-2.33882,5.98924,3.88034-.51102,3.98667-4.50408,2.33882-5.98924Z"/>
  <path id="path-02" class="cls-4" d="M28.3199,56.04202c-4.38321-.83543-6.12226,2.33125-6.12226,2.33125,0,0-.54482-2.44172-3.13566-4.5302h0l1.24484-.14091s3.96973-.81287,4.83444-1.33313c.86471-.5202.26508,3.07102,3.17864,3.67298h0ZM33.19654,34.17367c.94118-.53849,3.02565-.20832,3.02565-.20832.11505-2.71203,2.32188-5.031,2.32188-5.031,0,0-3.38018-2.94782-3.41948-3.06572s-.58962.36895-.58962.36895c-2.55477,3.12034-5.51099,3.5313-5.51099,3.5313l-.00032-.00006c1.18137.77874,3.66755,2.59652,4.17288,4.40486h0ZM82.98164,18.60119h0l-2.6823-1.77492s-.41988-1.55968-1.18957-.38989c-.76976,1.1698-4.92926,3.70692-4.92926,3.70692l-.3661.728-.00006.00006c1.86781,1.60351,2.04368,3.92061,2.04368,3.92061,0,0,3.0164-1.43991,6.10274-1.14252-.83827-1.51205.21989-3.73141,1.02087-5.04826ZM86.69573,63.02434l-.00026.00013c-2.61016,1.32809-7.78828-.99095-7.78828-.99095,0,0-.33708,1.47811-2.43752,3.65631-2.09985,2.17768-4.64428,2.37391-4.7826,2.41929-.00013.00006-.00019.00006-.00032.00013,0,0,3.30475,1.31135,4.4759,4.01504,3.56976-3.03579,6.64634-1.24445,6.64634-1.24445,0,0-.09359-4.86753,3.88674-7.8555h0ZM128.27144,59.02746c-.00006.00006-.00014.00006-.00018.00013-2.20999,1.41328-5.90541.59847-5.90541.59847,0,0-.13638.32396-.2557,1.07413-.11938.74998-.88623,1.61928-1.00025,1.73491l-.00006.00019s2.89359.81248,4.48055,2.4646c-.38763-2.37314,1.66013-4.82035,2.68107-5.87244h-.00002ZM55.09931,64.36945c2.69969-.60819,4.66247,2.22644,4.66247,2.22644,0,0-.50904-2.47489,2.67346-4.16059-1.3577-.4864-2.71785-2.3388-2.71785-2.3388,0,0-2.86325,2.22555-6.84191-.75915,0,0,2.60804,2.64204,2.22382,5.0321h.00001ZM132.46767,32.62148c-2.49892-.61276-4.41185-2.53395-4.41185-2.53395,0,0-1.46797.73395-2.55632.45556-1.08829-.27839-2.83464-.75929-2.83464-.75929,0,0-.05061.53151-.17717,1.4933-.12656.96154-1.03218,2.13075-1.03257,2.13114,0,.00006-.00006.00006-.00006.00013,2.37159.99243,2.37908,1.83833,2.37908,1.83833,0,0,5.35165-1.58444,7.6815,1.71869-.42545-1.61682,1.40935-4.22983,1.40935-4.22983,0,0-.17775-.03471-.45731-.11408h-.00002Z"/>
  <path id="path-01" class="cls-8" d="M73.8144,20.8713c-.42382-.36384-.93368-.69148-1.5496-.94641,0,0,5.49871-.61987,6.77826-5.63994.55549,1.69439,4.67783,3.21897,4.67783,3.21897,0,0-.33786.43733-.73925,1.09727-1.93923.07989-3.64816-1.47992-3.64816-1.47992,0,0-2.23242,3.14219-5.51908,3.75003ZM123.05933,30.45078s2.23003,1.85992,4.77976.21711c.93846,1.23211,4.90295,2.02675,4.90295,2.02675l-.00006-.00019c-.72516-.17504-3.45432-.97621-4.47357-3.32246-2.43189,1.98803-6.37357-.94796-6.37357-.94796,0,0,.9934,2.08938-.43979,4.98427,1.4147-.68689,1.60428-2.95752,1.60428-2.95752ZM78.99232,61.13443s-1.00258,4.9568-7.30557,6.98639c0,0,4.75164.23463,7.70748-4.97115,2.36564,1.26132,6.06138.70816,7.30124-.11357.07498-.0563.1411-.11654.21899-.17142-4.43886.97097-7.92214-1.73026-7.92214-1.73026h0ZM120.8832,57.38653c1.60299,2.73239.22662,5.04871.22662,5.04871,1.12093-.42001,1.299-2.05874,1.92236-2.07044.56648-.01067,3.31832.26669,5.23907-1.3372.32848-.33857.55264-.53519.55264-.53519,0,0-4.75481,2.72172-7.94069-1.10587h0ZM25.98741,51.39736s-4.72676,3.30746-8.38759,1.4456c.5509.31465,1.0316.65303,1.46215,1.00012,3.6609.93523,5.72449-.94085,5.72449-.94085,0,0,.99243,2.88726,3.4306,3.10476-1.98564-.5648-2.22964-4.60963-2.22965-4.60963ZM34.67091,24.48249s-1.93296,5.02066-6.09524,4.88938l.44832.397c1.45736.60733,5.93158-3.14432,5.93158-3.14432,0,0,1.41735,2.30669,3.00134,2.41774-1.94531,1.86193-2.11207,4.61319-2.11207,4.61319-.84131.0234-2.24005.35835-2.66769.46519.0053.01771.01448.03529.01939.053,1.33578-.24219,3.2215.30696,3.2215.30696,0,0-.27503-3.48263,2.80898-5.63561-2.14103-.97433-4.55611-4.36253-4.55611-4.36253Z"/>
</svg>