<?xml version="1.0" encoding="utf-8"?>
<!-- Generator: Adobe Illustrator 28.0.0, SVG Export Plug-In . SVG Version: 6.00 Build 0)  -->
<svg version="1.1" id="Layer_1" xmlns="http://www.w3.org/2000/svg" xmlns:xlink="http://www.w3.org/1999/xlink" x="0px" y="0px"
	 viewBox="0 0 250 249.36905" style="enable-background:new 0 0 250 249.36905;" xml:space="preserve">
<path id="path-01" d="M236.18703,67.19399c-0.58347-1.23214-1.22491-2.43537-1.931-3.60286
	c-0.01447-0.02854-0.02888-0.05038-0.04317-0.07188c-0.67738-1.12415-1.41237-2.21217-2.21219-3.26408
	c-5.61296-7.4217-13.87041-12.66717-20.72273-18.92879c-1.06653-2.82454-2.54353-5.51924-4.25134-8.00518
	c-5.25992-7.64491-13.17879-13.88503-22.35847-15.23943c-2.36333-0.35304-5.14471-0.21634-6.62894,1.65723
	c-1.90228,2.37777-0.54048,5.8219,0.38899,8.71849c0.74942,2.34166,1.1673,4.79165,1.23935,7.2487
	c-10.18845-0.11522-20.1463,3.58102-28.35336,9.51831h-0.16579c-4.44566-0.09354-9.1797-2.8027-10.05157-7.16925
	c-0.49715,4.3736,1.40515,8.85538,4.65479,11.78809c-4.12872,3.92701-7.58008,8.44472-10.08046,13.28676
	c-3.59547-0.37472-7.24149-0.28804-10.81527,0.26655c-2.04639,0.3171-4.24412,0.90058-5.46903,2.57244
	c-1.31864,1.77968-1.1023,4.22245-0.81427,6.41277c0.7711,5.86523,1.74391,11.86753,4.69793,16.99761
	c1.69336,2.9327,4.17929,5.53369,7.11199,7.19831c0.61942,1.72206,1.14563,3.48024,1.39052,5.2888
	c0.39638,2.90382,0.01443,6.0164-1.64279,8.43027c-1.66446,2.41389-4.78443,3.92702-7.60897,3.17036
	c3.24242,3.26408,7.88996,4.95021,12.49416,5.01504c1.25381,0.01444,2.50038-0.09373,3.73235-0.28822
	c-0.55476,1.06637-0.98708,5.58072-8.10472,3.82114c1.12291,4.49199,7.75369,12.99784,15.49284,15.66805
	c5.61473,1.93735,12.23898,1.49974,18.34911,0.13019c-23.58568,9.88158-36.02559-6.82483-37.66432-13.12891
	c-2.87704,1.41853-4.23019,5.36791-4.26632,7.69512c-0.72776-0.61942-2.6991-2.138-3.46298-2.67128
	c-7.78179-5.40401-17.3651-10.46239-26.74652-11.75919c-15.85674-2.19262-31.75769,2.06577-43.18727,9.31853
	c-1.97399,1.2524-3.73014,2.83124-5.09995,4.72577c-0.00652,0.0088-0.01303,0.01796-0.01956,0.02695
	c-5.18787,7.28235-8.56839,15.68832-9.80635,24.60483c-4.96027-13.80141,5.1268-28.56406,12.10625-32.74601
	c-7.49424,1.61956-9.31609,4.7335-10.2429,6.06991c-0.49733-2.60115-0.02483-4.54234,0.65977-7.10033
	c1.2753-4.7196,3.66029-9.05022,5.49052-13.58219c1.83023-4.53233,3.1272-9.51865,2.06084-14.29569
	c0.09354,4.92132-3.08386,9.28787-6.56428,12.76811c-3.47302,3.48023-7.47191,6.60004-9.83523,10.91621
	c-0.61254,1.12397-1.08802,2.31294-1.43403,3.53785c-0.12244-2.69487,0.06483-5.77151,0.66293-9.24471
	c1.49163-8.70405,5.87246-17.03355,12.5014-22.87007c6.62912-5.82895,16.28429-8.65366,24.61381-5.72095
	c-2.36333-2.35628-5.62019-3.66769-8.92039-4.12151c-2.75954-0.38916-5.56258-0.21616-8.32933,0.17283
	c0.49715-0.36749,1.00153-0.72054,1.54185-1.05192c3.54507-2.21217,7.5082-3.77567,11.62248-4.51788
	c7.14776-1.28975,14.48279-0.21616,21.74594-0.17283c7.26315,0.05056,15.03771-1.16748,20.36987-6.10307
	c-3.11275,2.68765-7.78918,2.6732-11.71603,1.45551c-2.73821-0.85037-5.28176-2.18327-7.89013-3.37947
	c6.06712-1.02302,12.06924-2.31293,17.91282-4.22227c10.2894-3.36503,20.14631-8.7835,27.20774-16.99762
	c0.93669-1.08803,1.80858-2.23384,2.63005-3.42264c1.46274-1.5133,2.77397-3.17036,3.90535-4.95003
	c5.13025-8.05592,6.59282-18.18658,4.78424-27.568c0.07945,3.50173-0.5907,6.99643-1.89488,10.24606
	c-0.06483-1.46996-0.23061-2.93993-0.51883-4.39527c-0.98726-5.01503-2.99208-9.25211-7.30797-12.00459
	c-5.14426-3.28064-16.16019-3.73939-19.53949-3.04757C47.93446,7.75203-0.03856,60.49917,0.00002,124.44617
	c0.04176,69.19421,55.80679,124.92323,125.00092,124.92287C194.03583,249.36853,250,193.40414,250,124.36919
	C250,103.76871,245.01367,84.32849,236.18703,67.19399z M139.01608,235.98837c-4.82812,4.65706-11.52365,6.67528-17.95704,7.69899
	c-8.57685,1.21188-17.29869-0.02025-25.55456-2.33142c-12.20895-3.58559-24.47991-8.09413-34.56636-16.0426
	c-3.31429-2.66737-6.28646-5.75372-8.72184-9.23872c2.64326,3.31165,5.75372,6.20277,9.12915,8.70738
	c6.83664,4.94247,14.64592,8.28494,22.58802,11.01822c11.76712,3.98357,24.30446,7.4402,36.77837,5.52083
	c6.4096-1.02267,17.98839-4.42416,18.91205-11.867c0.1656-1.73457-0.54242-3.51935-1.73262-4.95689
	c-4.03148-4.77756-11.00764-4.61972-16.7649-5.54778c-4.19655-0.5493-8.416-1.103-12.61731-1.89084
	c-8.40913-1.46275-16.76543-4.45975-23.8103-9.31554c-3.16155-2.02682-6.25528-4.1888-9.53327-5.95155
	c-2.75935-0.95572-5.49088-1.9967-8.17254-3.14252c-5.70157-1.19727-12.28523-0.36943-16.28465,4.20325
	c3.33825-4.20096,8.46621-5.63727,13.64298-5.37497c-5.2268-2.41512-10.2177-5.29391-14.76271-8.87561
	c-3.31412-2.66722-6.28646-5.75372-8.72184-9.23856c2.64326,3.31163,5.75355,6.20259,9.12915,8.70738
	c6.83664,4.94246,14.64592,8.28477,22.58802,11.01822c11.7673,3.98322,24.30446,7.44022,36.77837,5.52084
	c6.4096-1.02303,17.98822-4.424,18.91206-11.86719c0.16544-1.73457-0.54243-3.51918-1.73264-4.95689
	c-4.03165-4.77757-11.00764-4.61971-16.76489-5.54778c-4.19672-0.54929-8.41619-1.10283-12.61731-1.89066
	c-8.40931-1.46274-16.76543-4.4601-23.8103-9.31554c-5.31329-3.40642-10.43034-7.20343-16.56335-8.82455
	c-5.94241-1.5621-13.15745-0.9478-17.42729,3.93353c5.6172-7.0683,16.47465-8.15051,23.93282-4.64296
	c3.91318,1.78426,7.49665,4.12625,11.10498,6.29703c10.69618,7.05949,23.27693,8.87404,35.84749,10.23619
	c4.29847,0.5708,8.60495,0.77621,12.75569,2.36598c7.36021,2.73732,10.82821,12.79294,4.66684,18.88
	c-4.82795,4.65706-11.52347,6.67561-17.95686,7.69899c-8.57703,1.21223-17.29887-0.02008-25.55474-2.33144
	c-0.90903-0.26688-1.81808-0.54117-2.72694-0.81935c1.39069,0.83858,16.16301,10.39969,39.91261,11.98169
	c4.32665,0.28821,8.82366,0.93301,12.97442,2.52242c7.36021,2.73752,10.86266,11.57193,4.70128,17.65948L139.01608,235.98837z
	 M133.87421,231.19286c2.66809,1.59697-1.0424,3.2121-2.94997,2.82613c-0.59335-0.11996-1.19144-0.29298-1.67134-0.63315
	c-0.48006-0.34035-0.82466-0.8768-0.76263-1.4157c0.22021-1.9162,4.10687-1.54164,5.38393-0.77727L133.87421,231.19286z
	 M128.79381,226.02684c0.27167-0.53979,0.94322-0.82184,1.59435-0.93459c1.21857-0.21086,3.93953,0.11345,4.34859,1.48459
	c0.51335,1.72046-2.31841,2.14522-3.61554,1.93629c-0.6839-0.11011-1.37448-0.33315-1.86812-0.7778
	C128.75946,227.29086,128.51141,226.58795,128.79381,226.02684z M127.79157,237.93242
	c-0.46033,0.23415-0.99871,0.31711-1.52881,0.36678c-0.73164,0.06871-1.50432,0.07504-2.17482-0.2128
	c-0.67068-0.28786-1.20007-0.94534-1.0683-1.59309c0.13706-0.67245,0.90182-1.08716,1.64526-1.23636
	c1.53532-0.30794,6.13777,1.14369,3.12667,2.67551V237.93242z M126.21678,224.7829c-0.6624,0.145-1.36373,0.2225-2.03177,0.07275
	c-0.66821-0.14977-1.29891-0.56165-1.52634-1.14548c-0.27587-0.70837,0.11892-1.52281,0.79594-1.94228
	c1.02179-0.63333,3.74485-0.56039,4.6287,0.40536c1.14845,1.25505-0.63299,2.33936-1.86653,2.60962V224.7829z M124.94748,227.54825
	c0.55882,0.30231,1.14476,0.62929,1.45341,1.14458c0.88612,1.47929-1.53127,4.82089-2.60979,5.89166
	c-0.84086,0.83452-2.07775,1.42856-3.33843,1.28146c-1.26244-0.14728-2.32351-1.0119-2.93993-2.01891
	c-0.61642-1.00734-0.86253-2.15208-1.10018-3.27501c-0.23378-1.10547-0.46774-2.2453-0.21458-3.33807
	c0.25316-1.09279,1.11815-2.13924,2.34587-2.32809c1.12398-0.173,2.2275,0.38353,3.21688,0.91872
	C122.82285,226.39909,123.88516,226.97357,124.94748,227.54825L124.94748,227.54825z M122.35267,194.06569
	c2.6681,1.59715-1.0424,3.2123-2.94997,2.82628c-0.59352-0.11998-1.19144-0.29298-1.67134-0.63335
	c-0.48006-0.34018-0.82465-0.8766-0.76263-1.41553c0.22021-1.9162,4.10688-1.54164,5.38393-0.77744L122.35267,194.06569z
	 M117.27228,188.89966c0.27166-0.53978,0.94321-0.82164,1.59434-0.93439c1.21856-0.21106,3.93953,0.11345,4.34859,1.48459
	c0.51335,1.72047-2.31841,2.14522-3.61555,1.93628c-0.68388-0.11011-1.37447-0.33331-1.8681-0.77779
	C117.23792,190.16386,116.98987,189.46095,117.27228,188.89966z M116.27003,200.80542
	c-0.46033,0.23415-0.99871,0.31711-1.5288,0.36678c-0.73164,0.06854-1.50433,0.07487-2.17483-0.21298
	c-0.67068-0.28769-1.20007-0.94514-1.06829-1.59294c0.13705-0.67262,0.90181-1.08733,1.64525-1.23636
	C114.67869,197.82198,119.28113,199.27362,116.27003,200.80542z M114.69525,187.6559
	c-0.66241,0.14497-1.36374,0.22232-2.03177,0.07259c-0.66821-0.14975-1.29891-0.56163-1.52634-1.14546
	c-0.27587-0.70819,0.11892-1.52263,0.79594-1.94209c1.02162-0.63333,3.74485-0.56058,4.6287,0.40518
	C117.71023,186.30133,115.92879,187.38567,114.69525,187.6559L114.69525,187.6559z M113.42594,190.42105
	c0.55882,0.30231,1.14476,0.62946,1.45341,1.14478c0.88613,1.47929-1.53127,4.82089-2.60979,5.89149
	c-0.84086,0.83469-2.07775,1.42873-3.33843,1.28165c-1.26244-0.14746-2.32351-1.01192-2.93993-2.01909
	c-0.61642-1.00717-0.86253-2.15192-1.10019-3.27483c-0.23378-1.10547-0.46774-2.2453-0.21458-3.33826
	c0.25316-1.09261,1.11815-2.13905,2.34587-2.32791c1.12398-0.173,2.2275,0.38353,3.21688,0.91855
	c1.06213,0.57466,2.12444,1.14915,3.18674,1.72365L113.42594,190.42105z M239.14368,104.99556l1.70076-3.01269l0.30389,3.41348
	c0.2914,3.15715-0.9677,6.41119-3.2979,8.53457c-0.75719,0.68689-1.6169,1.25152-2.54619,1.60825
	c0.70097-0.70415,1.31052-1.44336,1.81931-2.23208c0.89107-1.37713,1.51242-2.93024,1.79518-4.53585
	c-2.99507,2.8529-7.5591,4.08486-11.42181,2.49492c4.61142,0.03223,9.35939-2.25233,11.64679-6.27061L239.14368,104.99556z
	 M242.34435,120.53325c-3.51353,3.31659-10.28816,1.94985-12.25829-2.45617
	C234.05798,119.92265,237.96898,120.69479,242.34435,120.53325z M180.56055,66.13416
	c-0.10411,0.88684-0.05814,1.80592,0.17635,2.72271c1.02321,4.00242,5.09732,6.41736,9.09956,5.39399
	c4.00224-1.0232,6.41716-5.09713,5.39398-9.09937c-1.02319-4.00241-5.09732-6.41735-9.09955-5.39416
	c-1.63521,0.41823-2.99876,1.35087-3.97792,2.57455c1.1895-1.63839,2.935-2.88761,5.04974-3.42827
	c4.81491-1.23108,9.71632,1.67432,10.94722,6.48923c1.23108,4.8149-1.67432,9.71632-6.48923,10.9474
	c-4.81509,1.2309-9.71632-1.67432-10.94739-6.48941c-0.32098-1.25574-0.35481-2.51588-0.15274-3.71667L180.56055,66.13416z
	 M177.50752,86.37137c1.24994-1.12431,3.08333-2.61014,3.76018-2.317c0.98691,0.42686,0.39427,3.8444-0.59177,5.60909
	c2.35506,1.4948,4.73018,1.87128,7.35353,0.34828c0.76228-0.33419,1.43526-0.82589,2.22292-1.17894
	c-1.67133,4.00682-6.0074,5.11828-9.00175,2.90488c1.04416,3.57573-1.50009,7.25998-5.83531,7.44425
	c0.60269-0.61659,1.2975-1.07868,1.87445-1.67872c2.33531-1.9347,2.80199-4.29591,2.21289-7.02126
	c-1.99672,0.3157-5.40862-0.30847-5.46852-1.38206c-0.04105-0.73657,1.98633-1.94386,3.47337-2.72853L177.50752,86.37137z
	 M162.09299,94.44772c-3.8925,3.08985-9.55301,2.43926-12.64287-1.45322c-3.09001-3.89249-2.43942-9.55301,1.45306-12.64286
	c1.70955-1.35722,3.76018-1.99161,5.78421-1.94791c-1.5667,0.03963-3.1339,0.56145-4.45589,1.61072
	c-3.23553,2.56857-3.77638,7.27355-1.20799,10.50891c2.56857,3.23553,7.27354,3.77638,10.50909,1.20799
	c3.23537-2.56837,3.77621-7.27354,1.20782-10.50909c-0.58841-0.74114-1.29256-1.33361-2.0619-1.78707
	c1.07869,0.56533,2.06172,1.3544,2.86752,2.36949C166.63606,85.69715,165.98547,91.35767,162.09299,94.44772L162.09299,94.44772z
	 M153.10353,157.20749c-0.76695-3.15361-0.97052-10.39491,5.40948-13.41748c1.04082-2.92107,3.34749-4.7506,6.03233-5.98978
	c2.81776-1.31369,7.50082-2.04523,10.8793-0.57115c1.95074,0.89105,3.70328,2.21092,5.05855,3.87697
	c5.18858,1.29626,8.48314,6.39656,9.02873,11.44914c0.52727,5.07193-1.17366,9.93811-3.25511,14.42764
	c1.31142-4.59099,2.53157-9.47461,1.67291-14.20285c-0.80281-4.43016-4.07799-9.0141-8.72571-9.54755
	c-2.38535-3.08246-6.3476-5.07018-10.25645-4.68402c-3.83592,0.32256-7.43878,3.1161-8.57948,6.79065
	c-3.99942,1.89595-5.40332,7.0507-4.71202,11.23755c0.7482,4.48248,3.34547,9.4045,5.69048,13.2702
	C158.33685,166.2688,154.25331,161.88341,153.10353,157.20749L153.10353,157.20749z M174.77794,145.73688
	c-0.07399,0.6395-0.20982,1.28903-0.5567,1.83112c-0.34705,0.5419-0.94127,0.961-1.58482,0.95078
	c-2.28827-0.03682-2.29074-4.1821-1.53392-5.60979C172.68346,139.92607,175.01541,143.68167,174.77794,145.73688z
	 M164.7262,153.79631c-0.10042,0.72125-0.51479,1.43016-1.17824,1.73018c-0.80492,0.36398-1.81207,0.03014-2.38499-0.64232
	c-0.86482-1.01491-1.09032-3.89989-0.05074-4.93257c1.35088-1.34224,2.83545,0.42914,3.29561,1.70515
	c0.24716,0.68512,0.41876,1.41835,0.31834,2.13957L164.7262,153.79631z M164.29616,147.21706
	c-0.38863-1.26595-0.31674-4.17453,1.25592-4.74709c1.9733-0.7186,2.79883,2.23013,2.70052,3.62241
	c-0.05197,0.73375-0.23642,1.48653-0.70503,2.05362c-0.46843,0.56709-1.27036,0.90111-1.96535,0.66011
	c-0.66875-0.23184-1.07851-0.91257-1.28604-1.58907L164.29616,147.21706z M176.10892,159.9267
	c-1.11903,0.75436-2.44296,1.1317-3.74203,1.49762c-1.27901,0.36028-2.59851,0.72424-3.91803,0.5685
	c-1.3197-0.15573-2.65454-0.9626-3.01797-2.24052c-0.33278-1.17014,0.1982-2.39326,0.71703-3.49347
	c0.55704-1.18121,1.11409-2.36243,1.67114-3.54384c0.29314-0.62152,0.61237-1.27406,1.18561-1.653
	c1.6458-1.08786,5.86911,1.12466,7.25699,2.15474c1.08186,0.80316,1.92502,2.04939,1.89543,3.39656
	C178.12747,157.96257,177.22795,159.17215,176.10892,159.9267z M180.36378,152.5448
	c-0.26338,0.73799-0.97917,1.36481-1.75941,1.29169c-0.81003-0.07574-1.38716-0.84174-1.64842-1.61195
	c-0.53943-1.59081,0.64867-6.60287,2.80235-3.57767c0.32925,0.46245,0.48869,1.02284,0.60814,1.57779
	c0.16454,0.76616,0.26056,1.582-0.00266,2.32016V152.5448z M211.90916,190.17989c-0.50999,2.24617-0.22653,4.68066-0.65059,7.242
	c-1.52635,8.73787-13.44725,9.38969-19.668,5.29478c-4.52757-2.7317-8.01222-7.95303-8.75848-13.04613
	c-1.4955-9.74573,4.06689-23.87566,10.1032-31.38754c5.42464-7.01987,15.99944-9.08351,24.47304-8.73734
	c-7.10054,0.49046-14.53952,2.37654-19.76949,7.31882c-6.60094,6.70451-13.03415,23.21535-11.46782,32.5575
	c0.37524,2.6711,1.31601,5.30537,2.83546,7.51419c-0.27553-1.77686-0.28842-5.85675,1.77919-8.07205
	c-0.39383,3.59372-0.16917,9.42856,1.53157,11.45839c0.1797,0.12686,0.36009,0.25316,0.54771,0.37102
	c2.21199,1.43613,4.89261,2.24492,7.56422,2.2858c-1.70296-1.11922-2.74774-5.43555-0.30989-8.98769
	c-0.20894,3.34319,0.55724,6.47743,1.46996,8.95967c1.43262-0.10059,2.84268-0.42986,4.1548-1.01704
	c2.05962-0.91803,3.4362-2.60342,3.89108-4.83656c0.52112-2.2164,0.36555-4.73738,1.07446-7.2244
	c0.73129-2.48082,2.32104-4.60826,4.3167-6.10431c1.97276-1.49304,4.42628-2.37988,6.89549-2.33284
	c-4.85809,0.47284-9.06819,4.22949-10.01263,8.7437L211.90916,190.17989z M238.70819,133.99936
	c-4.5621,2.73946-10.30263,3.55266-15.39833,1.98087c0.5565,2.52434,1.85278,4.86406,3.57466,6.80403
	c-3.56796,0.84509-7.52969-0.35164-9.65941-3.16119c2.02243,1.75183,4.69231,2.52522,7.16766,2.25763
	c-0.7283-0.86253-1.35193-1.81825-1.85931-2.83493c-0.96419-1.8017-1.37378-3.93353-1.60191-5.96178
	c-0.00017,0,1.51965,0.55405,1.51965,0.55405c5.95207,2.14066,12.98091,0.8111,17.83531-3.21527
	c-4.59999-0.43761-9.0201-2.54673-12.0601-6.03067c3.9892,3.1087,9.18481,4.77916,14.20584,4.31581l2.14893-0.19977
	C242.925,130.58746,241.02483,132.65834,238.70819,133.99936z"/>
</svg>
