<?xml version="1.0" encoding="UTF-8"?>
<svg id="Layer_1" data-name="Layer 1" xmlns="http://www.w3.org/2000/svg" version="1.1" viewBox="0 0 179.94388 250">
  <defs>
    <style>
      .cls-1 {
        fill: #000;
        stroke-width: 0px;
      }
    </style>
  </defs>
  <path id="path-01" class="cls-1" d="M150.14723,43.64365c.79346-8.284-.47546-16.31195-3.71399-23.37051-4.69727-10.24429-13.20618-17.37701-23.34167-19.56711-2.16492-.46906-4.39209-.70602-6.6217-.70602-9.77966,0-19.30359,4.60983-26.53198,12.74796C82.70887,4.60983,73.18434,0,63.40406,0c-2.22473,0-4.45068.23697-6.61682.70358-10.13916,2.19254-18.64807,9.32526-23.34656,19.56955-3.2373,7.061-4.50592,15.08652-3.71246,23.37051-9.61945.47394-18.15948,4.77036-23.63495,11.95328C.2162,63.31131-1.5111,73.51501,1.35511,83.59421c2.40936,8.47076,7.8952,16.30478,15.44922,22.05887,5.5603,4.23889,11.91528,7.09198,18.49731,8.32703v136.0199h109.33777V113.9682c6.55701-1.23993,12.8894-4.09058,18.4314-8.31512,8.31543-6.33331,14.01672-14.93088,16.05591-24.20822,2.07153-9.42581.17395-18.60504-5.34485-25.84793-5.47485-7.18292-14.01489-11.47934-23.63464-11.95328ZM98.0055,38.54187c2.36206-10.93994,10.30151-19.18945,18.46802-19.18945.84961,0,1.70166.09033,2.53052.26855,8.91113,1.92383,13.99048,13.54248,11.32202,25.90088-2.36084,10.93994-10.30029,19.18945-18.4668,19.18945-.85083,0-1.70288-.09033-2.53174-.26855-8.90991-1.92383-13.98926-13.54248-11.32202-25.90088ZM60.87049,19.62097c.82886-.17822,1.68091-.26855,2.53052-.26855,8.16772,0,16.10718,8.24951,18.46802,19.18945,2.66846,12.3584-2.41089,23.97705-11.32202,25.90088-.82886.17822-1.68091.26855-2.53052.26855-8.1665,0-16.10596-8.24951-18.46802-19.18945-2.66724-12.3584,2.41211-23.97705,11.32202-25.90088ZM28.53285,90.26306c-4.24805-3.2373-7.28882-7.48779-8.56323-11.96533-1.19995-4.21631-.66162-8.11279,1.51611-10.96924,2.14966-2.82227,5.70923-4.375,10.02441-4.375,4.69971,0,9.65698,1.8042,13.95874,5.08301,4.24805,3.23486,7.28882,7.48535,8.56323,11.96289,1.19873,4.21631.6604,8.11279-1.51733,10.96924-2.14966,2.82227-5.70923,4.375-10.02441,4.375-4.69971,0-9.65698-1.8042-13.95752-5.08057ZM128.92713,120.14343c-1.18652,8.37646-7.83569,15.16113-16.16821,16.50146-1.09131.17578-2.19482.26367-3.27759.26367h-.00122c-3.5437,0-7.01538-.95215-10.0415-2.75635-2.86499-1.70898-6.15112-2.6123-9.50073-2.6123-3.35083,0-6.63696.90576-9.50195,2.61475-3.0249,1.80176-6.4978,2.75391-10.0415,2.75391-1.08398,0-2.1875-.08789-3.27881-.26367-8.33252-1.34033-14.98169-8.125-16.16821-16.50146-1.26343-8.90625,3.38257-17.2998,11.56006-20.88623,4.25171-1.86523,7.30103-5.55176,8.15674-9.86816.92163-4.66064,3.53638-8.8501,7.36328-11.79688,3.34473-2.57812,7.57446-3.99658,11.9104-3.99658,4.33472,0,8.56445,1.41846,11.90918,3.99658,3.82568,2.94678,6.44165,7.13623,7.3645,11.79688.85449,4.31396,3.90381,8.00293,8.15674,9.86816,8.17627,3.58643,12.82227,11.97998,11.55884,20.88623ZM159.90492,78.29773c-1.27319,4.47754-4.31396,8.72803-8.56201,11.96533-4.30176,3.27637-9.25781,5.08057-13.95752,5.08057h-.00122c-4.31519,0-7.87476-1.55273-10.02441-4.375-4.66797-6.12793-1.50635-16.41602,7.04712-22.93213,4.30054-3.27881,9.25781-5.08301,13.95752-5.08301,4.31519,0,7.87476,1.55273,10.02441,4.375,2.17773,2.85645,2.71606,6.75293,1.51611,10.96924Z"/>
</svg>